<svg xmlns="http://www.w3.org/2000/svg" viewBox="0 0 680 460" width="680" height="460">
<defs>
  <style>
    .signal-lr  { animation: moveLR  2.2s linear infinite; }
    .signal-rl  { animation: moveRL  2.2s linear infinite 1.1s; }
    .signal-lr2 { animation: moveLR  2.2s linear infinite 0.6s; }
    .signal-rl2 { animation: moveRL  2.2s linear infinite 1.7s; }
    .pulse-box  { animation: pulseBox 2s ease-in-out infinite; }
    .float-user { animation: floatY  3s ease-in-out infinite; }
    .float-lap  { animation: floatY  3s ease-in-out infinite 1.5s; }
    .ar-grid    { animation: gridFade 4s ease-in-out infinite; }
    .ar-ring    { animation: ringPulse 2.5s ease-in-out infinite; }
    .ar-ring2   { animation: ringPulse 2.5s ease-in-out infinite 0.8s; }
    .scan-line  { animation: scanMove 3s linear infinite; }
    .cblink     { animation: cornerBlink 1.5s ease-in-out infinite; }
    .hint-text  { animation: hintPulse 2s ease-in-out infinite; }
    .inner-view { display: none; }
    .inner-sk-lr  { animation: innerLR 0.7s linear infinite; }
    .inner-sk-rl  { animation: innerRL 0.7s linear infinite 0.35s; }
    .inner-sk-lr2 { animation: innerLR 0.7s linear infinite 0.18s; }
    .inner-sk-rl2 { animation: innerRL 0.7s linear infinite 0.53s; }
    .mod-pulse1 { animation: modBlink 1.1s ease-in-out infinite; }
    .mod-pulse2 { animation: modBlink 1.1s ease-in-out infinite 0.28s; }
    .mod-pulse3 { animation: modBlink 1.1s ease-in-out infinite 0.55s; }
    .mod-pulse4 { animation: modBlink 1.1s ease-in-out infinite 0.83s; }
    .cursor-blink { animation: cursorB 1s step-end infinite; }
    .inner-ring  { animation: ringPulse 2s ease-in-out infinite; }
    .inner-ring2 { animation: ringPulse 2s ease-in-out infinite 1s; }
    @keyframes moveLR {
      0%   { transform: translateX(0);    opacity: 0; }
      8%   { opacity: 1; }
      92%  { opacity: 1; }
      100% { transform: translateX(370px); opacity: 0; }
    }
    @keyframes moveRL {
      0%   { transform: translateX(370px); opacity: 0; }
      8%   { opacity: 1; }
      92%  { opacity: 1; }
      100% { transform: translateX(0);    opacity: 0; }
    }
    @keyframes innerLR {
      0%   { transform: translateX(0);    opacity: 0; }
      10%  { opacity: 1; }
      90%  { opacity: 1; }
      100% { transform: translateX(178px); opacity: 0; }
    }
    @keyframes innerRL {
      0%   { transform: translateX(178px); opacity: 0; }
      10%  { opacity: 1; }
      90%  { opacity: 1; }
      100% { transform: translateX(0);    opacity: 0; }
    }
    @keyframes pulseBox {
      0%,100% { opacity: 1; }
      50%     { opacity: 0.72; }
    }
    @keyframes floatY {
      0%,100% { transform: translateY(0); }
      50%     { transform: translateY(-7px); }
    }
    @keyframes gridFade {
      0%,100% { opacity: 0.18; }
      50%     { opacity: 0.32; }
    }
    @keyframes ringPulse {
      0%   { transform: scale(1);   opacity: 0.7; }
      100% { transform: scale(1.9); opacity: 0; }
    }
    @keyframes scanMove {
      0%   { transform: translateY(0);    opacity: 0.07; }
      100% { transform: translateY(380px); opacity: 0; }
    }
    @keyframes cornerBlink {
      0%,100% { opacity: 1; }
      50%     { opacity: 0.3; }
    }
    @keyframes hintPulse {
      0%,100% { opacity: 0.9; }
      50%     { opacity: 0.3; }
    }
    @keyframes modBlink {
      0%,100% { fill: #28C840; }
      50%     { fill: #1A2535; }
    }
    @keyframes cursorB {
      0%,100% { opacity: 1; }
      50%     { opacity: 0; }
    }
  </style>

  <filter id="gcyan">
    <feGaussianBlur stdDeviation="3" result="b"/>
    <feMerge><feMergeNode in="b"/><feMergeNode in="SourceGraphic"/></feMerge>
  </filter>
  <filter id="gamber">
    <feGaussianBlur stdDeviation="3" result="b"/>
    <feMerge><feMergeNode in="b"/><feMergeNode in="SourceGraphic"/></feMerge>
  </filter>
  <filter id="gbox">
    <feGaussianBlur stdDeviation="5" result="b"/>
    <feMerge><feMergeNode in="b"/><feMergeNode in="SourceGraphic"/></feMerge>
  </filter>
  <filter id="gblur">
    <feGaussianBlur stdDeviation="2.5" result="b"/>
    <feMerge><feMergeNode in="b"/><feMergeNode in="SourceGraphic"/></feMerge>
  </filter>
  <filter id="ginner">
    <feGaussianBlur stdDeviation="4" result="b"/>
    <feMerge><feMergeNode in="b"/><feMergeNode in="SourceGraphic"/></feMerge>
  </filter>
</defs>

<!-- ═══════════════════════════════════════
     OUTER VIEW  (visible by default)
     ═══════════════════════════════════════ -->
<g id="outer-view">

  <!-- Background -->
  <rect width="680" height="460" fill="#06090F" rx="16"/>

  <!-- AR grid -->
  <g class="ar-grid">
    <line x1="0" y1="370" x2="680" y2="370" stroke="#1DE9B6" stroke-width="0.4" opacity="0.5"/>
    <line x1="0" y1="390" x2="680" y2="390" stroke="#1DE9B6" stroke-width="0.3" opacity="0.3"/>
    <line x1="0" y1="410" x2="680" y2="410" stroke="#1DE9B6" stroke-width="0.25" opacity="0.18"/>
    <line x1="0" y1="430" x2="680" y2="430" stroke="#1DE9B6" stroke-width="0.2" opacity="0.12"/>
    <line x1="340" y1="370" x2="0"   y2="480" stroke="#1DE9B6" stroke-width="0.3" opacity="0.22"/>
    <line x1="340" y1="370" x2="110" y2="480" stroke="#1DE9B6" stroke-width="0.3" opacity="0.18"/>
    <line x1="340" y1="370" x2="230" y2="480" stroke="#1DE9B6" stroke-width="0.3" opacity="0.18"/>
    <line x1="340" y1="370" x2="340" y2="480" stroke="#1DE9B6" stroke-width="0.3" opacity="0.18"/>
    <line x1="340" y1="370" x2="450" y2="480" stroke="#1DE9B6" stroke-width="0.3" opacity="0.18"/>
    <line x1="340" y1="370" x2="570" y2="480" stroke="#1DE9B6" stroke-width="0.3" opacity="0.18"/>
    <line x1="340" y1="370" x2="680" y2="480" stroke="#1DE9B6" stroke-width="0.3" opacity="0.22"/>
  </g>

  <!-- Scan line -->
  <rect x="0" y="80" width="680" height="3" fill="#1DE9B6" class="scan-line" opacity="0.07"/>

  <!-- AR label -->
  <rect x="20" y="14" width="104" height="22" rx="4" fill="none" stroke="#1DE9B6" stroke-width="0.8"/>
  <text x="72" y="29" text-anchor="middle" font-family="monospace" font-size="11" fill="#1DE9B6">AR · MODO ACTIVO</text>

  <!-- HUD corners -->
  <g class="cblink" stroke="#1DE9B6" stroke-width="1.2" fill="none" stroke-linecap="round">
    <polyline points="40,50 40,40 50,40"/>
    <polyline points="630,50 630,40 620,40"/>
    <polyline points="40,418 40,428 50,428"/>
    <polyline points="630,418 630,428 620,428"/>
  </g>

  <!-- Signal tracks -->
  <line x1="155" y1="222" x2="525" y2="222" stroke="#1DE9B6" stroke-width="0.5" stroke-dasharray="6 4" opacity="0.22"/>
  <line x1="155" y1="238" x2="525" y2="238" stroke="#EF9F27" stroke-width="0.5" stroke-dasharray="6 4" opacity="0.22"/>

  <!-- Signals LR (cyan) -->
  <g class="signal-lr" transform-origin="155 222">
    <circle cx="155" cy="222" r="5.5" fill="#1DE9B6" filter="url(#gcyan)"/>
    <circle cx="142" cy="222" r="3"   fill="#1DE9B6" opacity="0.48"/>
    <circle cx="131" cy="222" r="1.5" fill="#1DE9B6" opacity="0.2"/>
  </g>
  <g class="signal-lr2" transform-origin="155 222">
    <circle cx="155" cy="222" r="4"   fill="#64FFDA" filter="url(#gcyan)"/>
    <circle cx="144" cy="222" r="2.5" fill="#64FFDA" opacity="0.42"/>
  </g>

  <!-- Signals RL (amber) -->
  <g class="signal-rl" transform-origin="155 238">
    <circle cx="525" cy="238" r="5.5" fill="#EF9F27" filter="url(#gamber)"/>
    <circle cx="538" cy="238" r="3"   fill="#EF9F27" opacity="0.48"/>
    <circle cx="549" cy="238" r="1.5" fill="#EF9F27" opacity="0.2"/>
  </g>
  <g class="signal-rl2" transform-origin="155 238">
    <circle cx="525" cy="238" r="4"   fill="#FFD54F" filter="url(#gamber)"/>
    <circle cx="536" cy="238" r="2.5" fill="#FFD54F" opacity="0.42"/>
  </g>

  <!-- ── USER SILHOUETTE ── -->
  <g class="float-user" transform-origin="100 230" filter="url(#gblur)">
    <!-- AR rings -->
    <circle cx="100" cy="230" r="32" fill="none" stroke="#1DE9B6" stroke-width="0.8" class="ar-ring" opacity="0"/>
    <circle cx="100" cy="230" r="32" fill="none" stroke="#1DE9B6" stroke-width="0.5" class="ar-ring2" opacity="0"/>
    <!-- AR frame -->
    <g class="cblink" stroke="#1DE9B6" stroke-width="1" fill="none" stroke-linecap="round">
      <polyline points="44,95 44,85 54,85"/>
      <polyline points="156,95 156,85 146,85"/>
      <polyline points="44,365 44,375 54,375"/>
      <polyline points="156,365 156,375 146,375"/>
    </g>
    <!-- Shadow body -->
    <ellipse cx="100" cy="130" rx="22" ry="24" fill="#1DE9B6" opacity="0.18"/>
    <rect x="91" y="152" width="18" height="14" rx="3" fill="#1DE9B6" opacity="0.18"/>
    <path d="M62,168 Q72,156 100,156 Q128,156 138,168 L132,280 L68,280 Z" fill="#1DE9B6" opacity="0.18"/>
    <path d="M68,185 Q52,210 44,244 L60,248 Q68,225 80,205 Z" fill="#1DE9B6" opacity="0.18"/>
    <path d="M132,185 Q148,210 156,244 L140,248 Q132,225 120,205 Z" fill="#1DE9B6" opacity="0.18"/>
    <ellipse cx="50"  cy="254" rx="10" ry="7" fill="#1DE9B6" opacity="0.18"/>
    <ellipse cx="150" cy="254" rx="10" ry="7" fill="#1DE9B6" opacity="0.18"/>
    <path d="M68,280 L62,340 L85,340 L100,290 L115,340 L138,340 L132,280 Z" fill="#1DE9B6" opacity="0.15"/>
    <rect x="58" y="338" width="84" height="10" rx="4" fill="#1DE9B6" opacity="0.13"/>
    <rect x="54" y="250" width="8" height="90" rx="3" fill="#1DE9B6" opacity="0.10"/>
    <rect x="138" y="250" width="8" height="90" rx="3" fill="#1DE9B6" opacity="0.10"/>
    <line x1="66"  y1="348" x2="62"  y2="370" stroke="#1DE9B6" stroke-width="4" stroke-linecap="round" opacity="0.12"/>
    <line x1="134" y1="348" x2="138" y2="370" stroke="#1DE9B6" stroke-width="4" stroke-linecap="round" opacity="0.12"/>
    <!-- Monitor -->
    <rect x="60" y="160" width="80" height="68" rx="5" fill="#0D1B2E" stroke="#1DE9B6" stroke-width="1"/>
    <rect x="64" y="164" width="72" height="58" rx="3" fill="#0A1020"/>
    <rect x="68" y="168" width="42" height="4"   rx="1" fill="#1DE9B6" opacity="0.6"/>
    <rect x="68" y="176" width="58" height="2.5" rx="1" fill="#2A3D55" opacity="0.7"/>
    <rect x="68" y="182" width="48" height="2.5" rx="1" fill="#2A3D55" opacity="0.55"/>
    <rect x="68" y="188" width="53" height="2.5" rx="1" fill="#2A3D55" opacity="0.5"/>
    <rect x="68" y="194" width="40" height="2.5" rx="1" fill="#1DE9B6" opacity="0.35"/>
    <rect x="68" y="200" width="55" height="2.5" rx="1" fill="#2A3D55" opacity="0.4"/>
    <rect x="68" y="208" width="5"  height="9"   rx="1" fill="#1DE9B6" class="cursor-blink"/>
    <rect x="93" y="228" width="14" height="10"  rx="1" fill="#1A2535"/>
    <rect x="76" y="236" width="48" height="6"   rx="2" fill="#1A2535"/>
    <rect x="60" y="248" width="80" height="12"  rx="3" fill="#1A2535" stroke="#2A3D55" stroke-width="0.5"/>
    <rect x="63" y="251" width="74" height="6"   rx="1" fill="#0D1728"/>
    <rect x="65" y="252" width="5" height="2" rx="0.5" fill="#2A3D55"/>
    <rect x="72" y="252" width="5" height="2" rx="0.5" fill="#2A3D55"/>
    <rect x="79" y="252" width="5" height="2" rx="0.5" fill="#2A3D55"/>
    <rect x="86" y="252" width="5" height="2" rx="0.5" fill="#2A3D55"/>
    <rect x="93" y="252" width="5" height="2" rx="0.5" fill="#2A3D55"/>
    <rect x="100" y="252" width="5" height="2" rx="0.5" fill="#2A3D55"/>
    <rect x="107" y="252" width="5" height="2" rx="0.5" fill="#2A3D55"/>
    <rect x="65" y="256" width="7" height="2" rx="0.5" fill="#2A3D55"/>
    <rect x="74" y="256" width="5" height="2" rx="0.5" fill="#2A3D55"/>
    <rect x="81" y="256" width="5" height="2" rx="0.5" fill="#2A3D55"/>
    <rect x="88" y="256" width="7" height="2" rx="0.5" fill="#2A3D55"/>
    <rect x="97" y="256" width="5" height="2" rx="0.5" fill="#2A3D55"/>
    <rect x="104" y="256" width="7" height="2" rx="0.5" fill="#2A3D55"/>
  </g>
  <text x="100" y="400" text-anchor="middle" font-family="monospace" font-size="11" fill="#1DE9B6">USUARIO · PC</text>

  <!-- ── BOX 3D SISTEMA OPERATIVO ── -->
  <g class="pulse-box" transform-origin="340 215" filter="url(#gbox)">
    <circle cx="340" cy="215" r="78" fill="none" stroke="#1DE9B6" stroke-width="0.6" class="ar-ring"  opacity="0"/>
    <circle cx="340" cy="215" r="78" fill="none" stroke="#1DE9B6" stroke-width="0.4" class="ar-ring2" opacity="0"/>
    <g class="cblink" stroke="#1DE9B6" stroke-width="1.2" fill="none" stroke-linecap="round">
      <polyline points="258,88 258,78 268,78"/>
      <polyline points="422,88 422,78 412,78"/>
      <polyline points="258,352 258,362 268,362"/>
      <polyline points="422,352 422,362 412,362"/>
    </g>
    <!-- Faces -->
    <polygon points="265,128 340,98 415,128 340,158" fill="#0B3D4F" stroke="#1DE9B6" stroke-width="1.2"/>
    <polygon points="265,128 340,158 340,322 265,292" fill="#062A38" stroke="#1DE9B6" stroke-width="1.2"/>
    <polygon points="340,158 415,128 415,292 340,322" fill="#0D4A60" stroke="#1DE9B6" stroke-width="1.2"/>
    <!-- Top deco -->
    <ellipse cx="340" cy="128" rx="28" ry="12" fill="none" stroke="#1DE9B6" stroke-width="0.6" opacity="0.5"/>
    <circle  cx="340" cy="128" r="5" fill="#1DE9B6" opacity="0.7"/>
    <!-- Circuit left -->
    <line x1="288" y1="192" x2="322" y2="192" stroke="#1DE9B6" stroke-width="0.6" opacity="0.5"/>
    <line x1="288" y1="212" x2="336" y2="212" stroke="#1DE9B6" stroke-width="0.6" opacity="0.5"/>
    <line x1="288" y1="232" x2="318" y2="232" stroke="#1DE9B6" stroke-width="0.6" opacity="0.5"/>
    <circle cx="288" cy="192" r="2" fill="#1DE9B6" opacity="0.6"/>
    <circle cx="288" cy="212" r="2" fill="#1DE9B6" opacity="0.6"/>
    <circle cx="288" cy="232" r="2" fill="#1DE9B6" opacity="0.6"/>
    <line x1="288" y1="192" x2="288" y2="232" stroke="#1DE9B6" stroke-width="0.6" opacity="0.3"/>
    <!-- Circuit right -->
    <line x1="358" y1="192" x2="392" y2="192" stroke="#EF9F27" stroke-width="0.6" opacity="0.5"/>
    <line x1="354" y1="212" x2="392" y2="212" stroke="#EF9F27" stroke-width="0.6" opacity="0.5"/>
    <line x1="360" y1="232" x2="392" y2="232" stroke="#EF9F27" stroke-width="0.6" opacity="0.5"/>
    <circle cx="392" cy="192" r="2" fill="#EF9F27" opacity="0.6"/>
    <circle cx="392" cy="212" r="2" fill="#EF9F27" opacity="0.6"/>
    <circle cx="392" cy="232" r="2" fill="#EF9F27" opacity="0.6"/>
    <line x1="392" y1="192" x2="392" y2="232" stroke="#EF9F27" stroke-width="0.6" opacity="0.3"/>
    <!-- Vertex dots -->
    <circle cx="340" cy="98"  r="3.5" fill="#1DE9B6" opacity="0.9"/>
    <circle cx="265" cy="128" r="3"   fill="#1DE9B6" opacity="0.7"/>
    <circle cx="415" cy="128" r="3"   fill="#1DE9B6" opacity="0.7"/>
    <circle cx="340" cy="158" r="3"   fill="#1DE9B6" opacity="0.7"/>
    <circle cx="265" cy="292" r="3"   fill="#1DE9B6" opacity="0.5"/>
    <circle cx="415" cy="292" r="3"   fill="#1DE9B6" opacity="0.5"/>
    <circle cx="340" cy="322" r="3.5" fill="#1DE9B6" opacity="0.7"/>
    <!-- Labels -->
    <text x="340" y="230" text-anchor="middle" font-family="monospace" font-size="13" fill="#1DE9B6" font-weight="bold">SISTEMA</text>
    <text x="340" y="250" text-anchor="middle" font-family="monospace" font-size="13" fill="#1DE9B6" font-weight="bold">OPERATIVO</text>
    <text x="340" y="272" text-anchor="middle" font-family="monospace" font-size="9"  fill="#1DE9B6" opacity="0.6">kernel · scheduler</text>
    <text x="340" y="285" text-anchor="middle" font-family="monospace" font-size="9"  fill="#1DE9B6" opacity="0.6">drivers · memory</text>
    <!-- Pulse ring -->
    <circle cx="340" cy="128" r="8" fill="none" stroke="#1DE9B6" stroke-width="0.8">
      <animate attributeName="r"       values="8;20;8"    dur="2s" repeatCount="indefinite"/>
      <animate attributeName="opacity" values="0.8;0;0.8" dur="2s" repeatCount="indefinite"/>
    </circle>
  </g>
  <text x="340" y="346" text-anchor="middle" font-family="monospace" font-size="11" fill="#1DE9B6">[ AR OBJECT · 3D ]</text>
  <!-- Hint -->
  <text x="340" y="375" text-anchor="middle" font-family="monospace" font-size="10" fill="#1DE9B6" class="hint-text">&#x25BC; toca para explorar el interior &#x25BC;</text>

  <!-- ── LAPTOP ── -->
  <g class="float-lap" transform-origin="580 228">
    <circle cx="580" cy="228" r="34" fill="none" stroke="#EF9F27" stroke-width="0.8" class="ar-ring"  opacity="0"/>
    <circle cx="580" cy="228" r="34" fill="none" stroke="#EF9F27" stroke-width="0.5" class="ar-ring2" opacity="0"/>
    <g class="cblink" stroke="#EF9F27" stroke-width="1" fill="none" stroke-linecap="round">
      <polyline points="514,108 514,98 524,98"/>
      <polyline points="646,108 646,98 636,98"/>
      <polyline points="514,362 514,372 524,372"/>
      <polyline points="646,362 646,372 636,372"/>
    </g>
    <!-- Screen lid -->
    <rect x="518" y="148" width="124" height="90" rx="5" fill="#0D1B2E" stroke="#EF9F27" stroke-width="1.2"/>
    <rect x="522" y="152" width="116" height="82" rx="3" fill="#0A1020"/>
    <rect x="526" y="156" width="108" height="14" rx="2" fill="#1A2535"/>
    <circle cx="531" cy="163" r="3" fill="#FF5F57"/>
    <circle cx="539" cy="163" r="3" fill="#FEBC2E"/>
    <circle cx="547" cy="163" r="3" fill="#28C840"/>
    <rect x="556" y="160" width="68" height="6" rx="1" fill="#2A3D55"/>
    <rect x="526" y="173" width="108" height="58" rx="1" fill="#060D18"/>
    <rect x="530" y="177" width="32" height="3" rx="1" fill="#EF9F27" opacity="0.8"/>
    <rect x="530" y="183" width="70" height="2" rx="1" fill="#2A3D55" opacity="0.7"/>
    <rect x="530" y="188" width="54" height="2" rx="1" fill="#2A3D55" opacity="0.6"/>
    <rect x="530" y="193" width="62" height="2" rx="1" fill="#1DE9B6" opacity="0.5"/>
    <rect x="530" y="198" width="44" height="2" rx="1" fill="#2A3D55" opacity="0.5"/>
    <rect x="530" y="203" width="66" height="2" rx="1" fill="#2A3D55" opacity="0.4"/>
    <rect x="530" y="208" width="42" height="2" rx="1" fill="#EF9F27" opacity="0.4"/>
    <circle cx="624" cy="177" r="4" fill="#28C840">
      <animate attributeName="opacity" values="1;0.3;1" dur="1.5s" repeatCount="indefinite"/>
    </circle>
    <circle cx="580" cy="151" r="2.5" fill="#1A2535"/>
    <circle cx="580" cy="151" r="1" fill="#1DE9B6">
      <animate attributeName="opacity" values="1;0.2;1" dur="2.5s" repeatCount="indefinite"/>
    </circle>
    <rect x="518" y="234" width="124" height="5"  rx="1" fill="#111C2E"/>
    <rect x="516" y="237" width="128" height="12" rx="3" fill="#1A2535" stroke="#EF9F27" stroke-width="0.8"/>
    <rect x="553" y="240" width="54"  height="5"  rx="1" fill="#0D1728" stroke="#2A3D55" stroke-width="0.5"/>
    <rect x="518" y="240" width="32"  height="4"  rx="1" fill="#0D1728"/>
    <rect x="608" y="240" width="34"  height="4"  rx="1" fill="#0D1728"/>
    <rect x="516" y="249" width="128" height="6"  rx="2" fill="#111C2E" stroke="#EF9F27" stroke-width="0.5"/>
  </g>
  <text x="580" y="400" text-anchor="middle" font-family="monospace" font-size="11" fill="#EF9F27">LAPTOP · ACTIVA</text>

  <!-- Legend -->
  <rect x="200" y="414" width="280" height="38" rx="6" fill="#06090F" stroke="#1DE9B6" stroke-width="0.5" opacity="0.85"/>
  <circle cx="220" cy="427" r="5" fill="#1DE9B6" filter="url(#gcyan)"/>
  <text x="233" y="431" font-family="monospace" font-size="10" fill="#1DE9B6">peticion usuario -&gt; S.O. -&gt; laptop</text>
  <circle cx="220" cy="443" r="5" fill="#EF9F27" filter="url(#gamber)"/>
  <text x="233" y="447" font-family="monospace" font-size="10" fill="#EF9F27">respuesta laptop -&gt; S.O. -&gt; usuario</text>

  <!-- Click zone (transparent, triggers toggle) -->
  <rect id="click-zone" x="255" y="85" width="170" height="270" rx="4" fill="transparent" cursor="pointer"
        onclick="document.getElementById('outer-view').style.display='none'; document.getElementById('inner-view').style.display='block';"/>
</g>

<!-- ═══════════════════════════════════════
     INNER VIEW  (hidden by default)
     ═══════════════════════════════════════ -->
<g id="inner-view" style="display:none;">

  <!-- Background -->
  <rect width="680" height="460" fill="#020810" rx="16"/>

  <!-- Grid interior -->
  <g opacity="0.22">
    <line x1="0" y1="40"  x2="680" y2="40"  stroke="#1DE9B6" stroke-width="0.3"/>
    <line x1="0" y1="80"  x2="680" y2="80"  stroke="#1DE9B6" stroke-width="0.3"/>
    <line x1="0" y1="120" x2="680" y2="120" stroke="#1DE9B6" stroke-width="0.3"/>
    <line x1="0" y1="160" x2="680" y2="160" stroke="#1DE9B6" stroke-width="0.3"/>
    <line x1="0" y1="200" x2="680" y2="200" stroke="#1DE9B6" stroke-width="0.3"/>
    <line x1="0" y1="240" x2="680" y2="240" stroke="#1DE9B6" stroke-width="0.3"/>
    <line x1="0" y1="280" x2="680" y2="280" stroke="#1DE9B6" stroke-width="0.3"/>
    <line x1="0" y1="320" x2="680" y2="320" stroke="#1DE9B6" stroke-width="0.3"/>
    <line x1="0" y1="360" x2="680" y2="360" stroke="#1DE9B6" stroke-width="0.3"/>
    <line x1="0" y1="400" x2="680" y2="400" stroke="#1DE9B6" stroke-width="0.3"/>
    <line x1="40"  y1="0" x2="40"  y2="460" stroke="#1DE9B6" stroke-width="0.3"/>
    <line x1="80"  y1="0" x2="80"  y2="460" stroke="#1DE9B6" stroke-width="0.3"/>
    <line x1="120" y1="0" x2="120" y2="460" stroke="#1DE9B6" stroke-width="0.3"/>
    <line x1="160" y1="0" x2="160" y2="460" stroke="#1DE9B6" stroke-width="0.3"/>
    <line x1="200" y1="0" x2="200" y2="460" stroke="#1DE9B6" stroke-width="0.3"/>
    <line x1="240" y1="0" x2="240" y2="460" stroke="#1DE9B6" stroke-width="0.3"/>
    <line x1="280" y1="0" x2="280" y2="460" stroke="#1DE9B6" stroke-width="0.3"/>
    <line x1="320" y1="0" x2="320" y2="460" stroke="#1DE9B6" stroke-width="0.3"/>
    <line x1="360" y1="0" x2="360" y2="460" stroke="#1DE9B6" stroke-width="0.3"/>
    <line x1="400" y1="0" x2="400" y2="460" stroke="#1DE9B6" stroke-width="0.3"/>
    <line x1="440" y1="0" x2="440" y2="460" stroke="#1DE9B6" stroke-width="0.3"/>
    <line x1="480" y1="0" x2="480" y2="460" stroke="#1DE9B6" stroke-width="0.3"/>
    <line x1="520" y1="0" x2="520" y2="460" stroke="#1DE9B6" stroke-width="0.3"/>
    <line x1="560" y1="0" x2="560" y2="460" stroke="#1DE9B6" stroke-width="0.3"/>
    <line x1="600" y1="0" x2="600" y2="460" stroke="#1DE9B6" stroke-width="0.3"/>
    <line x1="640" y1="0" x2="640" y2="460" stroke="#1DE9B6" stroke-width="0.3"/>
  </g>

  <!-- Border dashed -->
  <rect x="30" y="30" width="620" height="400" rx="6" fill="none" stroke="#1DE9B6" stroke-width="1" stroke-dasharray="6 3"/>

  <!-- Title -->
  <text x="340" y="22" text-anchor="middle" font-family="monospace" font-size="11" fill="#1DE9B6" font-weight="bold">[ INTERIOR · SISTEMA OPERATIVO ]</text>

  <!-- HUD corners inner -->
  <g class="cblink" stroke="#1DE9B6" stroke-width="1.2" fill="none" stroke-linecap="round">
    <polyline points="32,42 32,32 42,32"/>
    <polyline points="648,42 648,32 638,32"/>
    <polyline points="32,428 32,418 42,418"/>
    <polyline points="648,428 648,418 638,418"/>
  </g>

  <!-- ── SHELL BOX (left) ── -->
  <rect x="60" y="80" width="220" height="290" rx="8" fill="#071828" stroke="#1DE9B6" stroke-width="1.5"/>
  <!-- Shell title bar -->
  <rect x="60" y="80" width="220" height="38" rx="8" fill="#0D2840"/>
  <rect x="60" y="102" width="220" height="16" rx="0" fill="#0D2840"/>
  <text x="170" y="103" text-anchor="middle" font-family="monospace" font-size="15" fill="#1DE9B6" font-weight="bold">SHELL</text>
  <text x="170" y="118" text-anchor="middle" font-family="monospace" font-size="9"  fill="#1DE9B6" opacity="0.55">interfaz de usuario</text>
  <text x="170" y="130" text-anchor="middle" font-family="monospace" font-size="9"  fill="#1DE9B6" opacity="0.55">bash · zsh · cmd</text>
  <!-- Shell code lines -->
  <rect x="80" y="148" width="50" height="3" rx="1" fill="#1DE9B6" opacity="0.6"/>
  <rect x="80" y="158" width="90" height="3" rx="1" fill="#2A3D55" opacity="0.65"/>
  <rect x="80" y="168" width="75" height="3" rx="1" fill="#2A3D55" opacity="0.55"/>
  <rect x="80" y="178" width="85" height="3" rx="1" fill="#1DE9B6" opacity="0.35"/>
  <rect x="80" y="188" width="60" height="3" rx="1" fill="#2A3D55" opacity="0.5"/>
  <rect x="80" y="198" width="80" height="3" rx="1" fill="#2A3D55" opacity="0.4"/>
  <rect x="80" y="208" width="55" height="3" rx="1" fill="#1DE9B6" opacity="0.4"/>
  <rect x="80" y="218" width="70" height="3" rx="1" fill="#2A3D55" opacity="0.45"/>
  <rect x="80" y="228" width="45" height="3" rx="1" fill="#1DE9B6" opacity="0.5"/>
  <rect x="80" y="238" width="80" height="3" rx="1" fill="#2A3D55" opacity="0.35"/>
  <!-- Shell prompt area -->
  <rect x="78" y="300" width="184" height="56" rx="4" fill="#0A1420"/>
  <rect x="78" y="300" width="184" height="1"  fill="#1DE9B6" opacity="0.3"/>
  <text x="88" y="320" font-family="monospace" font-size="11" fill="#1DE9B6" opacity="0.7">user@host:~$</text>
  <text x="88" y="338" font-family="monospace" font-size="11" fill="#1DE9B6">ls -la /proc</text>
  <rect x="88" y="342" width="6" height="11" rx="1" fill="#1DE9B6" class="cursor-blink"/>
  <!-- Shell connection lines to border -->
  <line x1="170" y1="80"  x2="170" y2="62"  stroke="#1DE9B6" stroke-width="1" opacity="0.8"/>
  <line x1="170" y1="62"  x2="50"  y2="62"  stroke="#1DE9B6" stroke-width="1" opacity="0.8"/>
  <line x1="50"  y1="62"  x2="50"  y2="430" stroke="#1DE9B6" stroke-width="1" opacity="0.8"/>
  <text x="58" y="58" font-family="monospace" font-size="9" fill="#1DE9B6" opacity="0.8">stdin/stdout</text>

  <!-- ── KERNEL BOX (right) ── -->
  <rect x="400" y="80" width="220" height="290" rx="8" fill="#0A1E10" stroke="#EF9F27" stroke-width="1.5"/>
  <!-- Kernel title bar -->
  <rect x="400" y="80" width="220" height="38" rx="8" fill="#142810"/>
  <rect x="400" y="102" width="220" height="16" rx="0" fill="#142810"/>
  <text x="510" y="103" text-anchor="middle" font-family="monospace" font-size="15" fill="#EF9F27" font-weight="bold">KERNEL</text>
  <text x="510" y="118" text-anchor="middle" font-family="monospace" font-size="9"  fill="#EF9F27" opacity="0.55">nucleo del sistema</text>
  <text x="510" y="130" text-anchor="middle" font-family="monospace" font-size="9"  fill="#EF9F27" opacity="0.55">gestion de recursos</text>
  <!-- Kernel modules -->
  <rect x="416" y="148" width="188" height="46" rx="4" fill="#0D1E08" stroke="#EF9F27" stroke-width="0.7"/>
  <text x="510" y="168" text-anchor="middle" font-family="monospace" font-size="11" fill="#EF9F27" opacity="0.9">Scheduler</text>
  <text x="510" y="184" text-anchor="middle" font-family="monospace" font-size="9"  fill="#EF9F27" opacity="0.5">CPU time management</text>
  <circle cx="594" cy="165" r="5" fill="#1A2535" class="mod-pulse1"/>

  <rect x="416" y="202" width="188" height="46" rx="4" fill="#0D1E08" stroke="#EF9F27" stroke-width="0.7"/>
  <text x="510" y="222" text-anchor="middle" font-family="monospace" font-size="11" fill="#EF9F27" opacity="0.9">Memory Mgr</text>
  <text x="510" y="238" text-anchor="middle" font-family="monospace" font-size="9"  fill="#EF9F27" opacity="0.5">virtual memory / paging</text>
  <circle cx="594" cy="219" r="5" fill="#1A2535" class="mod-pulse2"/>

  <rect x="416" y="256" width="188" height="46" rx="4" fill="#0D1E08" stroke="#EF9F27" stroke-width="0.7"/>
  <text x="510" y="276" text-anchor="middle" font-family="monospace" font-size="11" fill="#EF9F27" opacity="0.9">FS / I-O</text>
  <text x="510" y="292" text-anchor="middle" font-family="monospace" font-size="9"  fill="#EF9F27" opacity="0.5">filesystem &amp; block I/O</text>
  <circle cx="594" cy="273" r="5" fill="#1A2535" class="mod-pulse3"/>

  <rect x="416" y="310" width="188" height="46" rx="4" fill="#0D1E08" stroke="#EF9F27" stroke-width="0.7"/>
  <text x="510" y="330" text-anchor="middle" font-family="monospace" font-size="11" fill="#EF9F27" opacity="0.9">Drivers</text>
  <text x="510" y="346" text-anchor="middle" font-family="monospace" font-size="9"  fill="#EF9F27" opacity="0.5">hardware abstraction</text>
  <circle cx="594" cy="327" r="5" fill="#1A2535" class="mod-pulse4"/>

  <!-- Kernel connection lines to border -->
  <line x1="510" y1="80"  x2="510" y2="62"  stroke="#EF9F27" stroke-width="1" opacity="0.8"/>
  <line x1="510" y1="62"  x2="630" y2="62"  stroke="#EF9F27" stroke-width="1" opacity="0.8"/>
  <line x1="630" y1="62"  x2="630" y2="430" stroke="#EF9F27" stroke-width="1" opacity="0.8"/>
  <text x="548" y="58" font-family="monospace" font-size="9" fill="#EF9F27" opacity="0.8">hardware I/O</text>

  <!-- ── SIGNAL CHANNEL between SHELL and KERNEL ── -->
  <!-- Track lines -->
  <line x1="280" y1="212" x2="400" y2="212" stroke="#9C6FE4" stroke-width="0.5" stroke-dasharray="5 3" opacity="0.25"/>
  <line x1="280" y1="248" x2="400" y2="248" stroke="#EF9F27" stroke-width="0.5" stroke-dasharray="5 3" opacity="0.25"/>

  <!-- Syscall label -->
  <text x="340" y="204" text-anchor="middle" font-family="monospace" font-size="10" fill="#9C6FE4" font-weight="bold">syscall</text>
  <!-- Arrow LR -->
  <polygon points="368,208 378,213 368,218" fill="#9C6FE4" opacity="0.8"/>

  <!-- Response label -->
  <text x="340" y="264" text-anchor="middle" font-family="monospace" font-size="10" fill="#EF9F27" font-weight="bold">response</text>
  <!-- Arrow RL -->
  <polygon points="312,244 302,249 312,254" fill="#EF9F27" opacity="0.8"/>

  <!-- Signals SHELL->KERNEL (cyan/purple) fast -->
  <g class="inner-sk-lr" transform-origin="280 212">
    <circle cx="280" cy="212" r="5" fill="#9C6FE4" filter="url(#ginner)"/>
    <circle cx="270" cy="212" r="3" fill="#9C6FE4" opacity="0.45"/>
    <circle cx="261" cy="212" r="1.5" fill="#9C6FE4" opacity="0.2"/>
  </g>
  <g class="inner-sk-lr2" transform-origin="280 212">
    <circle cx="280" cy="212" r="4" fill="#B39DDB" filter="url(#ginner)"/>
    <circle cx="272" cy="212" r="2.5" fill="#B39DDB" opacity="0.38"/>
  </g>

  <!-- Signals KERNEL->SHELL (amber) fast -->
  <g class="inner-sk-rl" transform-origin="280 248">
    <circle cx="458" cy="248" r="5" fill="#EF9F27" filter="url(#ginner)"/>
    <circle cx="468" cy="248" r="3" fill="#EF9F27" opacity="0.45"/>
    <circle cx="477" cy="248" r="1.5" fill="#EF9F27" opacity="0.2"/>
  </g>
  <g class="inner-sk-rl2" transform-origin="280 248">
    <circle cx="458" cy="248" r="4" fill="#FFD54F" filter="url(#ginner)"/>
    <circle cx="466" cy="248" r="2.5" fill="#FFD54F" opacity="0.38"/>
  </g>

  <!-- Back hint -->
  <text x="340" y="440" text-anchor="middle" font-family="monospace" font-size="10" fill="#1DE9B6" opacity="0.6" class="hint-text">toca la escena para volver al exterior</text>

  <!-- Click zone to go back -->
  <rect id="back-zone" x="0" y="0" width="680" height="460" rx="16" fill="transparent" cursor="pointer"
        onclick="document.getElementById('inner-view').style.display='none'; document.getElementById('outer-view').style.display='block';"/>
</g>

</svg>